<svg id="svg" version="1.1" width="400" height="400" viewBox="0 0 400 400" xmlns="http://www.w3.org/2000/svg" xmlns:xlink="http://www.w3.org/1999/xlink"><g id="svgg"><path id="path0" d="M290.382 114.852 C 289.923 115.311,182.154 115.486,180.367 115.031 C 179.475 114.804,179.330 114.866,179.530 115.386 C 179.662 115.732,179.908 116.016,180.074 116.016 C 180.241 116.016,180.479 116.403,180.603 116.877 C 180.727 117.351,180.954 117.614,181.106 117.461 C 181.259 117.308,181.851 117.888,182.422 118.750 C 182.992 119.612,183.572 120.204,183.710 120.066 C 183.848 119.929,183.808 120.346,183.623 120.993 C 183.323 122.036,183.369 122.149,184.025 121.978 C 184.875 121.755,184.989 122.245,184.277 123.056 C 184.009 123.362,184.192 123.275,184.685 122.863 C 185.322 122.330,185.516 122.282,185.358 122.694 C 185.231 123.026,185.645 123.844,186.328 124.609 C 186.984 125.344,187.439 126.159,187.339 126.420 C 187.238 126.681,187.599 127.184,188.140 127.539 C 188.770 127.951,189.039 128.403,188.889 128.795 C 188.701 129.284,188.765 129.316,189.203 128.952 C 189.882 128.388,190.409 129.356,189.771 129.994 C 189.379 130.386,190.833 131.522,191.490 131.338 C 191.643 131.295,191.657 131.550,191.521 131.905 C 191.336 132.388,191.413 132.466,191.828 132.216 C 192.289 131.938,192.298 131.986,191.885 132.497 C 191.472 133.006,191.498 133.155,192.038 133.362 C 192.397 133.500,192.584 133.718,192.455 133.847 C 192.326 133.976,192.609 134.424,193.083 134.844 C 193.557 135.263,193.682 135.492,193.359 135.352 C 192.969 135.183,193.000 135.284,193.451 135.654 C 193.824 135.960,194.014 136.325,193.874 136.464 C 193.734 136.604,193.805 136.719,194.031 136.719 C 194.257 136.719,194.744 137.180,195.113 137.743 C 195.482 138.307,195.602 138.656,195.380 138.518 C 195.158 138.381,194.863 138.452,194.725 138.675 C 194.586 138.899,194.619 139.034,194.798 138.975 C 195.200 138.842,198.420 142.116,198.484 142.723 C 198.509 142.966,198.509 143.296,198.484 143.457 C 198.458 143.618,198.569 143.729,198.730 143.704 C 199.892 143.520,200.087 143.789,199.377 144.598 C 198.968 145.065,198.827 145.334,199.064 145.197 C 199.300 145.059,199.828 145.218,200.235 145.549 C 200.643 145.881,200.713 146.036,200.391 145.894 C 200.068 145.752,200.244 146.017,200.781 146.484 C 201.318 146.951,201.550 147.227,201.297 147.098 C 201.043 146.968,200.707 147.085,200.550 147.357 C 200.394 147.629,200.405 147.726,200.575 147.572 C 200.976 147.210,202.429 147.983,202.162 148.416 C 202.049 148.598,202.231 148.851,202.566 148.980 C 202.901 149.108,203.065 149.390,202.931 149.607 C 202.700 149.981,203.260 150.178,204.102 150.018 C 204.318 149.977,204.295 150.145,204.049 150.395 C 203.718 150.733,203.961 151.201,205.017 152.257 C 205.793 153.033,206.124 153.551,205.752 153.408 C 205.120 153.166,205.117 153.212,205.708 154.113 C 206.055 154.644,206.517 155.078,206.733 155.078 C 206.950 155.078,206.886 155.376,206.591 155.739 C 206.227 156.188,206.211 156.306,206.543 156.107 C 207.346 155.624,207.923 156.230,207.343 156.946 C 207.064 157.290,207.030 157.456,207.267 157.314 C 207.709 157.050,208.958 158.205,209.660 159.526 C 209.929 160.033,210.006 157.876,209.905 152.617 C 209.812 147.737,209.901 144.884,210.153 144.729 C 210.370 144.595,210.547 144.309,210.547 144.095 C 210.547 143.880,210.327 143.836,210.059 143.997 C 209.713 144.205,209.723 144.102,210.094 143.645 C 210.442 143.216,210.573 142.206,210.485 140.639 C 210.411 139.342,210.483 138.280,210.645 138.281 C 210.806 138.281,210.894 138.062,210.840 137.793 C 210.786 137.524,211.035 137.327,211.394 137.354 C 211.835 137.387,212.000 137.163,211.903 136.660 C 211.824 136.251,211.926 136.020,212.130 136.145 C 212.333 136.271,212.500 136.217,212.500 136.026 C 212.500 135.834,212.720 135.674,212.988 135.671 C 213.257 135.668,214.036 135.539,214.721 135.385 C 215.689 135.167,216.136 135.277,216.739 135.880 C 217.165 136.305,217.616 136.551,217.741 136.426 C 217.866 136.300,217.969 136.398,217.969 136.642 C 217.969 136.887,218.540 137.239,219.238 137.425 C 220.081 137.650,220.489 137.987,220.451 138.427 C 220.408 138.936,220.515 138.990,220.913 138.659 C 221.305 138.334,221.633 138.430,222.254 139.051 C 222.706 139.503,223.245 139.768,223.452 139.640 C 223.659 139.512,223.828 139.604,223.828 139.844 C 223.828 140.084,223.989 140.181,224.185 140.060 C 224.382 139.938,224.607 140.033,224.687 140.271 C 224.766 140.509,225.528 140.715,226.380 140.729 C 227.232 140.744,227.622 140.827,227.246 140.914 C 226.870 141.001,226.563 141.230,226.563 141.423 C 226.563 141.615,226.855 141.660,227.213 141.523 C 227.700 141.336,227.779 141.412,227.528 141.828 C 227.260 142.273,227.339 142.267,227.928 141.797 C 228.593 141.266,228.638 141.274,228.408 141.890 C 228.268 142.263,228.279 142.536,228.432 142.496 C 228.972 142.355,230.469 143.026,230.469 143.409 C 230.469 143.622,230.634 143.694,230.835 143.570 C 231.037 143.445,231.364 143.633,231.563 143.987 C 231.808 144.427,232.010 144.491,232.196 144.191 C 232.627 143.492,234.375 143.647,234.375 144.384 C 234.375 144.911,234.273 144.933,233.773 144.518 C 233.282 144.111,233.082 144.113,232.698 144.527 C 232.328 144.927,232.332 144.977,232.715 144.761 C 233.533 144.299,234.088 144.908,233.515 145.640 C 233.055 146.229,233.075 146.236,233.734 145.718 C 234.380 145.210,234.517 145.225,234.981 145.860 C 235.268 146.253,236.084 146.701,236.795 146.855 C 237.517 147.012,238.039 147.350,237.979 147.621 C 237.916 147.904,238.062 147.987,238.331 147.821 C 238.584 147.665,238.988 147.807,239.229 148.137 C 239.470 148.467,240.015 148.808,240.439 148.895 C 240.864 148.982,241.191 149.327,241.167 149.662 C 241.136 150.077,241.411 150.240,242.028 150.172 C 243.699 149.989,244.521 154.934,243.024 156.169 C 242.546 156.564,242.532 156.633,242.969 156.440 C 243.291 156.298,243.120 156.535,242.589 156.967 C 242.058 157.398,241.487 157.667,241.320 157.564 C 241.152 157.460,241.016 157.650,241.016 157.985 C 241.016 158.320,240.742 158.594,240.407 158.594 C 240.072 158.594,239.888 158.740,239.999 158.919 C 240.264 159.348,238.988 159.363,238.444 158.937 C 238.183 158.733,238.021 158.821,238.021 159.169 C 238.021 159.478,238.194 159.624,238.407 159.493 C 238.630 159.355,238.668 159.455,238.497 159.732 C 238.335 159.995,237.945 160.111,237.630 159.990 C 237.204 159.827,237.121 159.969,237.305 160.549 C 237.570 161.382,236.951 161.629,236.486 160.877 C 236.313 160.598,236.379 160.532,236.658 160.705 C 237.343 161.128,237.197 160.714,236.448 160.106 C 236.085 159.812,235.904 159.764,236.045 160.001 C 236.409 160.610,235.420 161.830,234.508 161.897 C 234.087 161.928,233.097 162.352,232.308 162.840 C 231.499 163.340,230.658 163.600,230.378 163.437 C 230.106 163.277,230.234 163.559,230.664 164.063 C 231.094 164.566,231.227 164.850,230.960 164.694 C 230.693 164.538,230.166 164.591,229.788 164.811 C 229.297 165.097,229.259 165.214,229.655 165.222 C 229.959 165.229,230.095 165.347,229.957 165.485 C 229.819 165.623,229.438 165.514,229.111 165.242 C 228.620 164.835,228.516 164.857,228.516 165.370 C 228.516 165.762,228.299 165.908,227.930 165.766 C 227.607 165.643,227.344 165.746,227.344 165.997 C 227.344 166.247,227.168 166.344,226.953 166.211 C 226.738 166.078,226.563 166.185,226.563 166.448 C 226.563 166.712,226.446 166.811,226.305 166.669 C 226.163 166.527,225.793 166.773,225.483 167.216 C 225.147 167.695,224.676 167.928,224.318 167.791 C 223.798 167.591,223.791 167.649,224.261 168.219 C 224.759 168.823,224.727 168.836,223.879 168.384 C 223.299 168.075,223.052 168.051,223.218 168.320 C 223.368 168.563,223.218 168.750,222.875 168.750 C 222.540 168.750,222.266 168.932,222.266 169.154 C 222.266 169.421,221.983 169.408,221.437 169.115 C 220.910 168.833,220.701 168.821,220.862 169.082 C 221.183 169.601,219.666 170.442,219.072 170.075 C 218.829 169.924,218.733 169.969,218.859 170.173 C 219.197 170.720,218.586 171.520,217.734 171.645 C 217.326 171.705,216.935 172.045,216.866 172.400 C 216.708 173.207,217.521 173.258,217.827 172.461 C 218.265 171.320,218.683 171.897,218.557 173.468 C 218.486 174.344,218.529 174.961,218.651 174.838 C 218.773 174.716,219.143 174.834,219.473 175.101 C 219.970 175.504,220.013 175.486,219.727 175.000 C 219.432 174.500,219.475 174.490,220.025 174.936 C 220.379 175.223,220.896 175.329,221.174 175.172 C 221.568 174.948,221.577 174.996,221.215 175.388 C 220.852 175.781,220.920 176.027,221.528 176.520 C 222.630 177.411,222.712 178.586,221.733 179.428 C 221.274 179.823,221.118 180.032,221.387 179.894 C 221.655 179.755,221.875 179.828,221.875 180.055 C 221.875 180.436,221.008 180.656,220.149 180.493 C 219.951 180.455,219.981 180.655,220.214 180.936 C 220.662 181.476,219.925 183.398,219.270 183.398 C 219.091 183.398,218.970 183.618,219.000 183.887 C 219.029 184.155,218.909 184.375,218.733 184.375 C 218.556 184.375,218.300 184.729,218.162 185.162 C 218.025 185.595,217.765 185.858,217.584 185.746 C 217.404 185.634,217.304 185.978,217.362 186.511 C 217.431 187.140,217.317 187.384,217.035 187.207 C 216.359 186.784,215.597 186.748,215.845 187.150 C 215.969 187.350,216.251 187.401,216.472 187.264 C 216.710 187.117,216.688 187.364,216.420 187.866 C 216.169 188.333,215.712 188.813,215.404 188.931 C 215.096 189.049,214.844 189.391,214.844 189.690 C 214.844 189.990,214.641 190.234,214.393 190.234 C 214.139 190.234,214.267 190.616,214.686 191.107 C 215.291 191.817,215.303 191.880,214.746 191.449 C 214.259 191.072,214.063 191.052,214.063 191.381 C 214.063 191.635,213.896 191.740,213.692 191.614 C 213.488 191.488,213.393 191.756,213.481 192.213 C 213.603 192.843,213.491 192.983,213.015 192.800 C 212.470 192.591,212.459 192.646,212.933 193.228 C 213.409 193.814,213.395 193.866,212.820 193.650 C 212.313 193.461,212.199 193.589,212.318 194.212 C 212.471 195.003,212.457 195.005,211.608 194.297 C 211.132 193.900,210.962 193.826,211.230 194.131 C 211.785 194.763,211.890 195.465,211.383 195.151 C 211.198 195.037,211.095 195.379,211.154 195.911 C 211.225 196.566,211.113 196.787,210.806 196.595 C 210.112 196.161,209.343 196.117,209.595 196.525 C 209.719 196.725,210.001 196.776,210.222 196.639 C 210.460 196.492,210.438 196.739,210.170 197.241 C 209.919 197.708,209.448 198.193,209.121 198.319 C 208.639 198.504,208.626 198.609,209.049 198.882 C 209.443 199.136,209.355 199.278,208.691 199.460 C 208.208 199.592,207.807 199.988,207.800 200.339 C 207.784 201.149,206.841 202.414,206.504 202.077 C 206.364 201.937,206.250 202.116,206.250 202.474 C 206.250 202.832,206.045 203.125,205.794 203.125 C 205.544 203.125,205.453 203.239,205.593 203.379 C 205.733 203.519,205.542 203.884,205.170 204.190 C 204.797 204.495,204.725 204.626,205.009 204.480 C 205.434 204.263,205.437 204.358,205.029 205.012 C 204.755 205.450,204.363 205.705,204.158 205.578 C 203.953 205.452,203.910 205.550,204.062 205.796 C 204.215 206.043,203.900 206.683,203.359 207.223 C 202.820 207.762,202.591 208.209,202.850 208.217 C 203.109 208.225,202.923 208.451,202.438 208.721 C 201.718 209.121,201.646 209.309,202.047 209.741 C 202.403 210.124,202.408 210.197,202.065 210.004 C 201.804 209.857,201.189 210.139,200.698 210.630 C 200.207 211.122,199.629 211.467,199.414 211.398 C 199.199 211.329,199.243 211.496,199.512 211.769 C 200.144 212.412,200.144 213.023,199.512 212.643 C 199.227 212.472,199.268 212.657,199.609 213.086 C 199.932 213.491,199.994 213.701,199.748 213.554 C 199.255 213.258,198.696 214.313,199.045 214.879 C 199.166 215.074,199.058 215.234,198.806 215.234 C 198.553 215.234,198.430 214.913,198.534 214.518 C 198.640 214.111,198.514 213.802,198.242 213.802 C 197.970 213.802,197.844 214.111,197.951 214.518 C 198.054 214.913,197.932 215.234,197.679 215.234 C 197.426 215.234,197.328 215.410,197.461 215.625 C 197.594 215.840,197.506 216.016,197.266 216.016 C 197.025 216.016,196.930 216.179,197.054 216.379 C 197.177 216.579,197.107 216.849,196.898 216.978 C 196.689 217.107,196.632 217.515,196.770 217.884 C 196.991 218.473,196.940 218.489,196.353 218.011 C 195.774 217.540,195.716 217.548,195.916 218.068 C 196.048 218.414,195.838 218.894,195.420 219.198 C 194.467 219.892,192.932 222.099,193.209 222.376 C 193.540 222.706,191.945 223.451,191.590 223.131 C 191.420 222.977,191.409 223.074,191.566 223.346 C 191.723 223.618,191.985 223.758,192.149 223.656 C 192.314 223.555,192.448 223.700,192.448 223.980 C 192.448 224.272,192.081 224.447,191.587 224.393 C 190.994 224.328,190.740 224.499,190.773 224.942 C 190.799 225.296,190.588 225.538,190.303 225.479 C 189.972 225.410,189.898 225.551,190.096 225.869 C 190.906 227.166,190.703 227.923,189.761 227.118 C 189.058 226.518,188.987 226.505,189.410 227.051 C 189.787 227.538,189.807 227.734,189.478 227.734 C 189.224 227.734,189.124 227.909,189.256 228.122 C 189.583 228.650,187.599 230.576,187.067 230.247 C 186.761 230.058,186.758 230.203,187.057 230.761 C 187.576 231.732,187.190 232.177,186.364 231.558 C 185.843 231.168,185.822 231.181,186.230 231.640 C 186.946 232.442,186.828 232.789,185.903 232.610 C 185.237 232.482,185.171 232.555,185.546 233.006 C 186.211 233.808,185.645 234.551,184.862 233.906 C 184.318 233.457,184.299 233.497,184.703 234.254 C 185.047 234.901,185.048 235.177,184.706 235.388 C 184.453 235.545,184.359 235.498,184.493 235.282 C 184.624 235.069,184.485 234.896,184.184 234.896 C 183.781 234.896,183.734 235.079,184.005 235.586 C 184.483 236.478,184.475 236.827,183.984 236.523 C 183.770 236.391,183.594 236.459,183.594 236.676 C 183.594 236.893,183.831 237.211,184.120 237.383 C 184.410 237.555,185.135 238.439,185.731 239.349 C 186.326 240.259,186.957 240.914,187.132 240.806 C 187.307 240.698,187.293 241.156,187.102 241.822 C 186.829 242.774,186.859 242.948,187.241 242.631 C 187.770 242.192,188.814 243.427,188.849 244.531 C 188.859 244.854,189.186 245.091,189.576 245.059 C 190.253 245.003,190.254 245.034,189.598 245.759 C 189.023 246.395,189.012 246.479,189.532 246.280 C 190.462 245.923,191.541 247.597,190.907 248.411 C 190.480 248.958,190.507 248.963,191.153 248.455 C 192.116 247.697,192.839 247.622,192.839 248.280 C 192.839 248.682,192.709 248.708,192.318 248.383 C 191.659 247.837,191.632 248.495,192.285 249.198 C 192.614 249.553,192.623 249.640,192.312 249.465 C 192.058 249.323,191.723 249.429,191.566 249.701 C 191.409 249.973,191.420 250.070,191.590 249.916 C 191.991 249.554,193.445 250.327,193.177 250.760 C 193.065 250.941,193.247 251.195,193.582 251.323 C 193.916 251.452,194.097 251.708,193.983 251.893 C 193.868 252.078,194.046 252.562,194.377 252.970 C 194.709 253.377,194.866 253.447,194.727 253.125 C 194.587 252.803,194.744 252.873,195.076 253.280 C 195.407 253.688,195.569 254.198,195.435 254.415 C 195.300 254.632,195.386 254.688,195.626 254.540 C 195.864 254.393,195.966 253.970,195.852 253.601 C 195.674 253.027,195.710 253.033,196.100 253.643 C 196.351 254.035,196.454 254.458,196.328 254.583 C 196.203 254.708,196.319 255.081,196.585 255.410 C 196.925 255.829,196.932 255.926,196.609 255.733 C 196.355 255.581,196.035 255.639,195.896 255.863 C 195.758 256.086,195.790 256.244,195.967 256.213 C 196.821 256.065,197.247 256.375,198.288 257.903 C 200.071 260.520,200.164 260.695,199.588 260.338 C 199.307 260.165,199.557 260.652,200.143 261.420 L 201.210 262.818 202.074 261.976 C 203.380 260.701,204.232 259.537,203.563 259.940 C 203.188 260.166,203.084 260.100,203.221 259.722 C 203.329 259.424,203.609 259.222,203.843 259.273 C 204.077 259.324,204.168 259.104,204.046 258.784 C 203.905 258.418,204.055 258.203,204.450 258.203 C 204.796 258.203,205.034 258.068,204.980 257.903 C 204.927 257.737,205.258 257.199,205.716 256.707 C 206.336 256.039,206.502 255.469,206.367 254.468 C 206.202 253.240,206.272 253.125,207.189 253.125 C 208.449 253.125,210.321 250.512,209.654 249.685 C 209.428 249.404,209.404 249.205,209.602 249.243 C 210.643 249.441,211.027 249.212,210.573 248.665 C 210.194 248.208,210.293 248.131,211.139 248.224 C 211.835 248.300,212.036 248.208,211.766 247.938 C 211.213 247.385,212.364 245.185,213.005 245.570 C 213.371 245.790,213.373 245.725,213.011 245.277 C 212.574 244.736,212.863 243.642,213.423 243.717 C 214.214 243.823,214.453 243.684,214.453 243.122 C 214.453 242.701,214.664 242.575,215.094 242.741 C 215.630 242.946,215.655 242.889,215.242 242.392 C 214.877 241.952,214.869 241.797,215.210 241.797 C 215.463 241.797,215.562 241.621,215.430 241.406 C 215.297 241.191,215.360 241.016,215.570 241.016 C 216.008 241.016,217.712 238.389,217.840 237.517 C 217.940 236.837,219.124 235.881,219.545 236.141 C 219.704 236.239,219.810 236.014,219.780 235.640 C 219.749 235.241,219.955 235.010,220.281 235.081 C 220.739 235.180,220.748 235.095,220.331 234.592 C 219.846 234.008,220.062 233.818,221.108 233.910 C 221.223 233.920,221.328 233.634,221.341 233.273 C 221.402 231.636,222.424 230.288,223.238 230.774 C 223.455 230.903,223.392 230.712,223.097 230.348 C 222.563 229.691,222.849 229.459,223.955 229.651 C 224.132 229.682,224.164 229.524,224.025 229.300 C 223.887 229.077,223.567 228.997,223.313 229.124 C 223.059 229.251,223.185 229.084,223.593 228.752 C 224.000 228.421,224.511 228.259,224.727 228.393 C 224.952 228.532,225.000 228.441,224.838 228.179 C 224.683 227.927,224.374 227.834,224.153 227.970 C 223.907 228.122,223.923 227.896,224.194 227.391 C 224.437 226.935,224.729 226.563,224.841 226.563 C 224.954 226.563,224.921 226.765,224.767 227.013 C 224.608 227.272,224.659 227.359,224.887 227.218 C 225.106 227.083,225.236 226.525,225.176 225.979 C 225.073 225.038,226.882 223.496,227.437 224.052 C 227.543 224.158,227.582 223.811,227.524 223.282 C 227.466 222.753,227.654 222.230,227.941 222.120 C 228.278 221.991,228.408 221.473,228.306 220.666 C 228.160 219.511,228.190 219.471,228.693 220.155 C 229.226 220.881,229.237 220.880,229.170 220.117 C 229.125 219.605,229.303 219.381,229.688 219.466 C 230.010 219.538,230.149 219.472,229.996 219.319 C 229.720 219.043,230.692 216.797,231.088 216.797 C 231.202 216.797,231.206 216.943,231.095 217.122 C 230.984 217.301,231.147 217.448,231.456 217.448 C 231.873 217.448,231.910 217.317,231.598 216.941 C 231.147 216.397,232.489 214.063,233.253 214.063 C 233.466 214.063,233.531 213.887,233.398 213.672 C 233.266 213.457,233.362 213.281,233.612 213.281 C 233.864 213.281,233.964 213.009,233.835 212.675 C 233.683 212.279,233.760 212.166,234.055 212.348 C 234.357 212.535,234.425 212.412,234.258 211.978 C 233.997 211.297,234.349 211.123,234.980 211.621 C 235.185 211.782,235.233 211.761,235.089 211.573 C 234.543 210.864,235.195 210.095,235.885 210.635 C 236.461 211.084,236.468 211.062,235.958 210.414 C 235.428 209.739,235.363 209.736,234.905 210.363 C 234.459 210.971,234.422 210.957,234.479 210.202 C 234.527 209.568,234.801 209.375,235.653 209.375 C 236.295 209.375,236.663 209.210,236.523 208.984 C 236.391 208.770,236.479 208.594,236.719 208.594 C 236.959 208.594,237.047 208.419,236.915 208.205 C 236.783 207.991,237.168 207.347,237.771 206.774 C 238.374 206.201,238.604 205.870,238.281 206.040 C 237.959 206.210,238.219 205.843,238.859 205.225 C 239.500 204.607,240.138 204.139,240.278 204.184 C 240.418 204.229,240.526 204.053,240.518 203.793 C 240.465 202.185,240.659 201.537,241.113 201.810 C 241.460 202.018,241.450 201.916,241.078 201.458 C 240.624 200.897,240.701 200.720,241.664 200.111 C 242.274 199.726,242.827 199.147,242.893 198.826 C 242.958 198.505,243.299 198.022,243.651 197.754 C 244.002 197.485,244.168 197.266,244.020 197.266 C 243.871 197.266,244.108 196.908,244.545 196.470 C 244.983 196.033,245.242 195.514,245.120 195.318 C 244.838 194.861,246.273 194.077,246.713 194.447 C 246.895 194.601,246.806 194.416,246.515 194.036 C 245.876 193.201,247.009 191.615,247.980 191.987 C 248.446 192.166,248.460 192.099,248.058 191.615 C 247.788 191.290,247.385 191.137,247.161 191.276 C 246.917 191.427,246.872 191.336,247.049 191.049 C 247.212 190.787,247.588 190.665,247.886 190.780 C 248.184 190.894,248.409 190.862,248.387 190.709 C 248.261 189.869,248.490 189.437,248.926 189.688 C 249.194 189.843,249.289 189.831,249.137 189.662 C 248.863 189.358,249.825 187.109,250.228 187.109 C 250.343 187.109,250.346 187.256,250.236 187.435 C 250.125 187.614,250.291 187.760,250.605 187.760 C 251.067 187.760,251.045 187.611,250.490 186.977 C 250.074 186.501,250.022 186.322,250.359 186.520 C 250.786 186.771,250.850 186.679,250.636 186.121 C 250.372 185.434,250.404 185.436,251.246 186.155 C 252.130 186.910,252.132 186.910,251.556 186.133 C 251.237 185.703,250.713 185.122,250.391 184.842 C 249.899 184.414,249.946 184.400,250.684 184.758 C 251.167 184.992,251.563 185.068,251.563 184.927 C 251.563 184.786,251.870 184.911,252.246 185.206 C 252.862 185.689,252.878 185.676,252.408 185.076 C 251.699 184.170,252.193 183.390,253.062 184.044 C 253.609 184.456,253.635 184.447,253.223 183.985 C 252.573 183.256,252.599 183.088,253.529 182.016 C 253.966 181.512,254.225 180.845,254.106 180.534 C 253.934 180.086,254.004 180.063,254.438 180.424 C 254.881 180.792,255.036 180.689,255.236 179.893 C 255.372 179.350,255.666 178.906,255.890 178.906 C 256.113 178.906,256.195 178.743,256.071 178.543 C 255.948 178.343,256.026 178.068,256.245 177.933 C 256.464 177.797,256.551 177.214,256.438 176.636 C 256.256 175.709,256.276 175.684,256.604 176.425 C 256.809 176.886,257.192 177.397,257.455 177.559 C 257.790 177.766,257.833 177.692,257.598 177.313 C 257.004 176.351,257.140 175.360,257.923 174.941 C 258.512 174.626,258.618 174.644,258.385 175.021 C 258.188 175.341,258.241 175.413,258.540 175.229 C 258.791 175.073,258.898 174.786,258.777 174.590 C 258.441 174.046,259.356 172.598,259.846 172.901 C 260.101 173.059,260.167 172.989,260.007 172.731 C 259.859 172.491,260.066 171.965,260.467 171.564 C 260.869 171.162,261.152 170.524,261.097 170.147 C 261.041 169.769,261.085 169.549,261.195 169.658 C 261.304 169.767,261.737 169.513,262.156 169.094 C 262.576 168.674,263.116 168.452,263.356 168.601 C 263.624 168.766,263.683 168.694,263.510 168.413 C 263.354 168.162,263.100 168.035,262.945 168.131 C 262.789 168.227,262.636 167.953,262.603 167.522 C 262.554 166.867,262.641 166.818,263.130 167.224 C 263.452 167.492,263.685 167.549,263.648 167.351 C 263.485 166.499,263.705 165.990,264.123 166.248 C 264.390 166.413,264.468 166.356,264.315 166.109 C 264.173 165.879,264.629 165.114,265.329 164.409 C 266.029 163.704,266.338 163.287,266.016 163.482 C 265.579 163.747,265.616 163.542,266.160 162.680 C 267.082 161.218,267.971 160.502,268.477 160.815 C 268.695 160.950,268.751 160.864,268.603 160.624 C 268.455 160.386,268.032 160.276,267.663 160.381 C 267.294 160.485,267.388 160.363,267.871 160.109 C 268.645 159.701,268.987 158.769,268.774 157.649 C 268.737 157.451,268.956 157.497,269.261 157.750 C 269.717 158.129,269.796 158.038,269.708 157.230 C 269.611 156.352,269.917 156.064,270.801 156.204 C 270.962 156.229,271.073 156.118,271.047 155.957 C 270.918 155.138,271.142 154.671,271.545 154.920 C 271.824 155.093,271.890 155.027,271.717 154.748 C 271.237 153.972,271.871 153.420,272.593 153.985 C 273.168 154.434,273.183 154.417,272.728 153.835 C 272.289 153.273,272.346 153.045,273.118 152.272 C 273.616 151.774,273.979 151.235,273.926 151.074 C 273.872 150.913,274.014 150.781,274.242 150.781 C 274.469 150.781,274.558 150.624,274.439 150.432 C 274.220 150.077,275.316 149.425,275.908 149.557 C 276.085 149.596,276.117 149.446,275.979 149.222 C 275.840 148.998,275.579 148.907,275.398 149.019 C 275.217 149.131,275.117 148.777,275.177 148.231 C 275.288 147.226,275.781 146.374,275.781 147.188 C 275.781 147.432,276.044 147.531,276.365 147.408 C 276.686 147.285,276.863 147.045,276.758 146.875 C 276.653 146.705,276.841 146.461,277.175 146.333 C 277.510 146.204,277.686 145.941,277.566 145.747 C 277.446 145.553,277.611 145.294,277.932 145.170 C 278.253 145.047,278.516 144.633,278.516 144.249 C 278.516 143.866,279.053 143.045,279.709 142.426 C 280.365 141.807,280.815 141.072,280.708 140.794 C 280.579 140.457,280.779 140.339,281.307 140.441 C 281.868 140.549,282.003 140.455,281.768 140.121 C 281.059 139.113,281.394 137.693,282.333 137.727 C 282.952 137.750,283.291 137.483,283.450 136.848 C 283.576 136.347,283.846 135.938,284.050 135.938 C 284.254 135.938,284.312 135.762,284.180 135.547 C 283.953 135.180,284.510 134.978,285.320 135.132 C 285.518 135.170,285.452 134.927,285.175 134.592 C 284.667 133.981,285.019 133.749,286.122 133.967 C 286.331 134.008,286.193 133.701,285.816 133.284 C 285.154 132.553,285.163 132.530,286.073 132.630 C 286.811 132.711,286.976 132.581,286.832 132.032 C 286.589 131.101,287.415 129.603,288.008 129.901 C 288.266 130.030,288.125 129.841,287.695 129.481 C 286.929 128.838,286.933 128.831,287.888 129.118 C 288.778 129.385,288.813 129.352,288.299 128.733 C 287.797 128.127,287.818 128.070,288.498 128.188 C 289.044 128.283,289.294 128.067,289.386 127.418 C 289.456 126.921,289.764 126.419,290.069 126.302 C 290.375 126.184,290.625 125.843,290.625 125.544 C 290.625 125.245,290.801 125.000,291.016 125.000 C 291.230 125.000,291.406 124.745,291.406 124.434 C 291.406 124.123,291.821 123.420,292.329 122.873 C 292.961 122.191,293.193 121.569,293.065 120.900 C 292.955 120.329,293.059 119.922,293.314 119.922 C 293.554 119.922,293.750 119.736,293.750 119.508 C 293.750 119.281,293.601 119.187,293.418 119.299 C 293.236 119.412,293.073 118.999,293.055 118.382 C 293.017 117.033,291.906 115.625,290.881 115.625 C 290.265 115.625,290.222 115.525,290.625 115.039 C 291.173 114.378,290.994 114.240,290.382 114.852 M110.366 115.257 C 110.585 115.613,110.439 115.688,109.835 115.530 C 109.189 115.361,108.815 115.612,108.179 116.640 C 107.728 117.371,107.195 117.969,106.995 117.969 C 106.790 117.969,106.740 118.648,106.881 119.529 C 107.040 120.526,106.959 121.296,106.655 121.662 C 106.261 122.137,106.316 122.208,106.974 122.081 C 107.536 121.973,107.705 122.091,107.553 122.488 C 107.435 122.795,107.554 123.047,107.819 123.047 C 108.193 123.047,108.190 123.178,107.805 123.642 C 107.392 124.139,107.416 124.196,107.953 123.991 C 108.335 123.844,108.594 123.940,108.594 124.229 C 108.594 124.495,108.972 125.041,109.435 125.442 C 109.897 125.844,110.127 126.172,109.946 126.172 C 109.765 126.172,109.958 126.449,110.375 126.787 C 110.792 127.125,110.869 127.286,110.547 127.144 C 110.225 127.002,110.366 127.216,110.862 127.621 C 111.357 128.026,111.973 128.719,112.229 129.162 C 112.486 129.604,113.176 130.687,113.764 131.568 C 114.352 132.449,114.879 133.397,114.936 133.674 C 114.993 133.950,115.303 134.392,115.625 134.654 C 115.947 134.917,116.046 135.137,115.843 135.144 C 115.641 135.151,115.817 135.433,116.234 135.771 C 116.651 136.109,116.729 136.272,116.406 136.133 C 116.084 135.994,116.172 136.164,116.602 136.511 C 117.031 136.859,117.398 137.267,117.417 137.419 C 117.539 138.425,118.098 139.095,118.408 138.607 C 118.711 138.128,118.834 138.533,118.730 139.674 C 118.719 139.796,119.169 140.256,119.730 140.698 C 120.315 141.158,120.659 141.739,120.536 142.060 C 120.418 142.367,120.469 142.528,120.649 142.416 C 120.966 142.221,121.556 143.179,122.038 144.669 C 122.167 145.068,122.505 145.304,122.790 145.195 C 123.074 145.086,123.314 145.199,123.323 145.447 C 123.355 146.387,123.652 147.083,124.219 147.545 C 124.541 147.807,124.681 148.028,124.529 148.034 C 124.378 148.041,124.695 148.488,125.234 149.027 C 125.775 149.567,126.090 150.207,125.937 150.454 C 125.767 150.730,125.833 150.795,126.112 150.623 C 126.521 150.370,126.744 150.857,126.599 151.689 C 126.568 151.866,126.723 151.900,126.943 151.764 C 127.164 151.628,127.344 151.713,127.344 151.953 C 127.344 152.199,127.558 152.261,127.832 152.097 C 128.144 151.909,128.120 152.050,127.766 152.486 C 127.461 152.862,127.373 153.138,127.571 153.101 C 128.535 152.917,129.106 153.134,128.563 153.478 C 128.267 153.665,128.147 154.017,128.297 154.260 C 128.447 154.502,128.715 154.610,128.892 154.501 C 129.070 154.391,129.319 154.573,129.447 154.905 C 129.603 155.312,129.520 155.418,129.195 155.230 C 128.929 155.076,129.204 155.419,129.807 155.993 C 130.410 156.566,130.807 157.191,130.688 157.383 C 130.570 157.574,130.747 157.836,131.082 157.964 C 131.416 158.093,131.586 158.366,131.459 158.571 C 131.332 158.777,131.541 159.114,131.923 159.321 C 132.697 159.739,134.208 162.103,133.713 162.121 C 133.540 162.128,133.710 162.314,134.090 162.536 C 134.471 162.757,134.679 163.105,134.554 163.308 C 134.428 163.511,134.600 163.783,134.936 163.912 C 135.272 164.041,135.547 164.391,135.547 164.690 C 135.547 164.990,135.744 165.234,135.985 165.234 C 136.299 165.234,136.293 165.392,135.963 165.790 C 135.585 166.245,135.646 166.307,136.306 166.135 C 137.192 165.903,137.364 166.386,136.650 167.100 C 136.297 167.453,136.389 167.522,137.040 167.396 C 137.993 167.213,138.134 167.567,137.402 168.304 C 137.011 168.699,137.037 168.749,137.535 168.560 C 137.890 168.425,138.392 168.615,138.707 169.003 C 139.186 169.593,139.182 169.638,138.672 169.349 C 138.350 169.167,138.525 169.452,139.063 169.984 C 139.600 170.516,140.215 170.861,140.430 170.752 C 140.645 170.643,140.592 170.835,140.313 171.179 C 139.972 171.600,139.940 171.888,140.215 172.059 C 140.441 172.198,140.631 172.170,140.639 171.996 C 140.646 171.822,140.895 172.117,141.191 172.651 C 141.486 173.186,141.629 173.784,141.507 173.981 C 141.385 174.178,141.488 174.214,141.737 174.061 C 142.136 173.814,142.360 174.270,142.238 175.084 C 142.216 175.237,142.445 175.267,142.748 175.151 C 143.107 175.013,143.265 175.172,143.201 175.605 C 143.148 175.972,143.522 176.690,144.034 177.201 C 144.545 177.713,144.839 178.333,144.687 178.579 C 144.517 178.855,144.583 178.920,144.862 178.748 C 145.261 178.501,145.485 178.957,145.363 179.771 C 145.341 179.924,145.566 179.956,145.864 179.842 C 146.162 179.728,146.538 179.849,146.701 180.112 C 146.889 180.417,146.833 180.489,146.545 180.311 C 146.278 180.146,146.094 180.280,146.094 180.641 C 146.094 180.976,146.376 181.250,146.721 181.250 C 147.113 181.250,147.266 181.466,147.129 181.823 C 147.008 182.139,147.104 182.518,147.343 182.665 C 147.606 182.827,147.667 182.755,147.498 182.482 C 147.345 182.234,147.312 182.031,147.424 182.031 C 147.537 182.031,147.828 182.404,148.072 182.860 C 148.429 183.527,148.413 183.635,147.988 183.417 C 147.698 183.267,147.762 183.393,148.131 183.696 C 148.657 184.128,148.699 184.349,148.326 184.724 C 147.953 185.100,147.987 185.151,148.484 184.962 C 148.921 184.796,149.186 184.989,149.343 185.589 C 149.519 186.261,149.688 186.359,150.092 186.023 C 150.496 185.688,150.614 185.755,150.614 186.321 C 150.614 186.723,150.488 186.974,150.334 186.879 C 150.180 186.784,149.927 186.912,149.771 187.163 C 149.598 187.444,149.658 187.516,149.925 187.351 C 150.166 187.202,150.705 187.424,151.125 187.844 C 151.545 188.263,152.033 188.490,152.209 188.346 C 152.386 188.203,152.219 188.458,151.838 188.913 C 151.160 189.721,151.167 189.737,152.156 189.628 C 153.008 189.535,153.092 189.608,152.689 190.093 C 152.305 190.556,152.320 190.646,152.766 190.549 C 153.088 190.480,153.299 190.709,153.269 191.098 C 153.240 191.466,153.416 191.729,153.659 191.684 C 153.903 191.639,154.078 191.902,154.050 192.270 C 154.021 192.637,154.182 192.901,154.406 192.856 C 154.630 192.810,154.917 193.144,155.044 193.596 C 155.179 194.081,155.543 194.378,155.930 194.318 C 156.354 194.253,156.512 194.412,156.376 194.765 C 156.261 195.066,156.388 195.313,156.659 195.313 C 157.000 195.313,156.952 195.534,156.504 196.029 C 155.968 196.621,155.955 196.745,156.427 196.745 C 156.740 196.745,156.906 196.598,156.796 196.419 C 156.256 195.546,157.033 196.235,157.640 197.168 C 158.194 198.018,158.210 198.136,157.720 197.735 C 157.293 197.385,157.020 197.358,156.842 197.647 C 156.699 197.878,156.815 198.018,157.100 197.959 C 157.390 197.899,157.592 198.157,157.561 198.549 C 157.515 199.112,157.612 199.157,158.065 198.780 C 158.503 198.417,158.731 198.427,159.099 198.824 C 159.474 199.229,159.455 199.267,159.005 199.010 C 158.694 198.832,158.861 199.278,159.375 200.000 C 159.897 200.733,160.060 201.183,159.745 201.018 C 159.434 200.856,159.521 201.000,159.938 201.338 C 160.355 201.676,160.562 201.953,160.398 201.953 C 160.235 201.953,160.684 202.539,161.398 203.255 C 163.522 205.386,164.574 207.384,163.976 208.150 C 163.531 208.720,163.551 208.731,164.160 208.253 C 164.644 207.874,164.844 207.852,164.844 208.178 C 164.844 208.439,165.056 208.516,165.332 208.354 C 165.601 208.197,165.474 208.464,165.050 208.946 C 164.626 209.429,164.482 209.766,164.729 209.697 C 164.977 209.627,165.468 209.922,165.822 210.352 C 166.175 210.781,166.350 210.869,166.211 210.547 C 166.072 210.225,166.229 210.294,166.560 210.702 C 166.891 211.110,167.070 211.593,166.957 211.776 C 166.843 211.959,166.924 212.109,167.137 212.109 C 167.813 212.109,168.803 213.362,168.582 213.938 C 168.463 214.246,168.541 214.387,168.754 214.255 C 169.102 214.040,169.309 214.557,169.187 215.332 C 169.161 215.493,169.338 215.581,169.580 215.527 C 169.822 215.474,170.108 215.674,170.217 215.972 C 170.331 216.288,170.240 216.408,170.000 216.259 C 169.772 216.118,169.482 216.171,169.355 216.375 C 169.223 216.589,169.535 216.674,170.084 216.574 C 170.612 216.478,171.185 216.621,171.359 216.891 C 171.888 217.718,172.579 219.921,172.244 219.713 C 172.071 219.606,171.816 219.702,171.678 219.925 C 171.539 220.149,171.571 220.307,171.748 220.276 C 173.104 220.040,174.892 222.420,174.098 223.403 C 173.734 223.853,173.739 223.915,174.118 223.687 C 174.703 223.335,176.716 225.217,176.363 225.787 C 176.231 226.002,176.396 226.282,176.731 226.411 C 177.065 226.539,177.242 226.802,177.123 226.994 C 177.004 227.186,177.093 227.344,177.321 227.344 C 177.548 227.344,177.734 227.580,177.734 227.869 C 177.734 228.158,178.127 228.729,178.607 229.139 C 179.317 229.744,179.380 229.756,178.949 229.199 C 178.572 228.712,178.552 228.516,178.881 228.516 C 179.135 228.516,179.234 228.340,179.102 228.125 C 178.892 227.786,179.353 227.580,180.120 227.670 C 180.250 227.685,180.310 227.266,180.252 226.739 C 180.194 226.208,180.403 225.638,180.723 225.459 C 181.039 225.282,181.315 224.568,181.334 223.873 C 181.358 223.043,181.481 222.785,181.695 223.121 C 181.958 223.536,182.020 223.532,182.025 223.097 C 182.030 222.642,182.135 222.642,182.715 223.097 C 183.327 223.577,183.345 223.565,182.888 222.981 C 182.099 221.972,185.792 216.850,186.874 217.453 C 187.156 217.610,187.150 217.525,186.855 217.206 C 186.513 216.834,186.585 216.540,187.163 215.962 C 187.579 215.546,187.828 215.059,187.717 214.879 C 187.606 214.699,187.932 214.101,188.443 213.550 C 188.953 212.999,189.272 212.449,189.152 212.329 C 188.940 212.117,189.697 211.957,190.361 212.073 C 190.538 212.104,190.570 211.946,190.432 211.722 C 190.293 211.498,189.999 211.427,189.778 211.564 C 189.529 211.718,189.543 211.500,189.814 210.994 C 190.332 210.025,191.565 209.286,192.003 209.682 C 192.174 209.835,192.185 209.738,192.028 209.466 C 191.871 209.194,191.535 209.076,191.282 209.203 C 191.028 209.330,191.205 209.094,191.675 208.678 C 192.345 208.085,192.430 207.812,192.066 207.419 C 191.697 207.020,191.747 206.967,192.305 207.165 C 192.727 207.313,192.913 207.257,192.769 207.024 C 192.637 206.810,192.802 206.530,193.137 206.402 C 193.472 206.273,193.647 206.010,193.528 205.816 C 193.408 205.622,193.589 205.356,193.931 205.225 C 194.423 205.036,194.455 204.871,194.084 204.425 C 193.828 204.115,193.779 203.893,193.977 203.930 C 194.769 204.081,195.346 203.886,195.132 203.540 C 195.007 203.338,195.160 203.030,195.472 202.856 C 196.023 202.547,196.094 202.398,196.094 201.539 C 196.094 201.312,196.270 201.234,196.484 201.367 C 196.699 201.500,196.875 201.261,196.875 200.837 C 196.875 200.412,197.358 199.686,197.949 199.222 C 198.540 198.759,198.760 198.494,198.438 198.633 C 197.917 198.858,197.917 198.828,198.438 198.367 C 198.760 198.082,199.081 197.587,199.152 197.268 C 199.223 196.948,199.458 196.578,199.674 196.444 C 199.890 196.311,200.052 196.090,200.033 195.952 C 199.945 195.290,200.051 195.256,200.684 195.746 C 201.228 196.168,201.214 196.096,200.615 195.394 C 200.038 194.718,199.969 194.406,200.322 194.053 C 200.574 193.801,200.781 193.723,200.781 193.881 C 200.781 194.039,201.138 193.977,201.573 193.744 C 202.009 193.511,202.262 193.153,202.136 192.949 C 202.010 192.745,202.122 192.578,202.386 192.578 C 202.649 192.578,202.750 192.464,202.610 192.324 C 202.470 192.184,202.661 191.819,203.033 191.514 C 203.481 191.146,203.512 191.045,203.125 191.216 C 202.803 191.358,202.979 191.111,203.516 190.668 C 204.053 190.224,204.350 189.857,204.177 189.852 C 204.004 189.848,204.170 189.323,204.546 188.687 C 205.074 187.793,205.347 187.628,205.748 187.961 C 206.158 188.300,206.210 188.242,205.997 187.686 C 205.790 187.146,205.856 187.059,206.281 187.316 C 206.735 187.589,206.748 187.542,206.357 187.058 C 205.979 186.590,205.979 186.357,206.357 185.949 C 206.736 185.540,206.734 185.490,206.348 185.708 C 206.079 185.860,205.859 185.787,205.859 185.547 C 205.859 185.307,205.702 185.207,205.510 185.326 C 205.166 185.539,204.504 184.461,204.625 183.887 C 204.660 183.726,204.468 183.638,204.199 183.691 C 203.931 183.745,203.735 183.483,203.764 183.110 C 203.794 182.733,203.638 182.541,203.415 182.679 C 203.163 182.835,203.081 182.565,203.197 181.959 C 203.317 181.334,203.204 180.990,202.880 180.990 C 202.604 180.990,202.485 181.163,202.617 181.375 C 202.750 181.592,202.656 181.638,202.403 181.482 C 202.069 181.276,202.064 180.992,202.382 180.398 C 202.619 179.955,202.645 179.697,202.440 179.823 C 202.236 179.950,201.735 179.782,201.327 179.451 C 200.919 179.119,200.794 178.952,201.047 179.079 C 201.301 179.206,201.622 179.127,201.760 178.903 C 201.898 178.679,201.866 178.521,201.689 178.552 C 200.898 178.690,200.365 178.483,200.586 178.125 C 200.719 177.910,200.653 177.734,200.440 177.734 C 200.227 177.734,199.655 177.175,199.169 176.492 C 198.659 175.777,198.524 175.379,198.849 175.555 C 199.160 175.723,198.835 175.384,198.127 174.802 C 196.924 173.813,196.886 173.710,197.541 173.220 C 198.189 172.735,198.175 172.712,197.363 172.917 C 196.844 173.047,196.484 172.959,196.484 172.702 C 196.484 172.016,196.348 171.768,195.417 170.764 C 194.938 170.247,194.658 169.643,194.794 169.422 C 194.931 169.201,194.875 169.124,194.670 169.250 C 194.465 169.377,194.073 169.122,193.799 168.684 C 193.526 168.246,193.478 167.996,193.694 168.130 C 193.910 168.263,194.214 168.166,194.369 167.915 C 194.531 167.653,194.484 167.561,194.259 167.701 C 194.042 167.834,193.532 167.673,193.124 167.341 C 192.716 167.010,192.590 166.843,192.844 166.970 C 193.098 167.096,193.433 166.994,193.588 166.743 C 193.761 166.463,193.702 166.390,193.434 166.555 C 193.194 166.704,192.654 166.482,192.234 166.062 C 191.815 165.643,191.331 165.417,191.159 165.560 C 190.987 165.703,191.104 165.479,191.419 165.062 C 191.777 164.587,191.809 164.413,191.504 164.597 C 191.215 164.770,191.016 164.686,191.016 164.392 C 191.016 164.119,190.660 163.537,190.225 163.100 C 189.237 162.107,187.500 159.468,187.500 158.962 C 187.500 158.753,187.007 158.102,186.404 157.514 C 185.801 156.926,185.670 156.709,186.111 157.031 C 186.912 157.615,186.912 157.615,186.157 156.725 C 185.741 156.234,185.170 155.920,184.888 156.029 C 184.598 156.140,184.375 155.958,184.375 155.610 C 184.375 155.187,184.588 155.075,185.059 155.251 C 185.435 155.392,185.160 154.972,184.449 154.317 C 183.738 153.662,183.255 152.967,183.376 152.771 C 183.496 152.576,183.243 152.509,182.813 152.621 C 182.208 152.779,182.031 152.633,182.031 151.976 C 182.031 151.508,182.195 151.227,182.395 151.351 C 182.595 151.474,182.851 151.426,182.964 151.243 C 183.271 150.747,181.882 150.830,181.549 151.329 C 181.379 151.583,181.259 151.440,181.255 150.977 C 181.250 150.547,180.890 149.610,180.454 148.895 C 180.018 148.179,179.831 147.699,180.038 147.827 C 180.245 147.955,180.516 147.896,180.639 147.697 C 180.893 147.286,180.120 147.334,179.419 147.773 C 179.096 147.975,179.006 147.780,179.124 147.130 C 179.241 146.484,178.963 145.866,178.221 145.123 C 177.631 144.532,177.125 143.850,177.096 143.606 C 177.067 143.363,177.023 143.011,176.998 142.823 C 176.973 142.636,176.661 142.724,176.304 143.019 C 175.722 143.499,175.676 143.446,175.856 142.500 C 175.979 141.849,175.891 141.475,175.626 141.523 C 175.389 141.566,175.194 141.287,175.192 140.902 C 175.190 140.517,174.926 140.036,174.606 139.833 C 174.286 139.631,174.175 139.462,174.360 139.459 C 174.545 139.456,174.281 139.088,173.774 138.642 C 173.267 138.196,173.115 137.958,173.438 138.113 C 173.923 138.348,173.937 138.303,173.516 137.850 C 173.236 137.550,172.812 137.305,172.572 137.305 C 172.332 137.305,172.063 137.041,171.975 136.719 C 171.833 136.198,171.862 136.198,172.230 136.719 C 172.489 137.085,172.647 137.129,172.650 136.836 C 172.654 136.578,172.349 136.188,171.973 135.969 C 171.597 135.750,171.454 135.565,171.657 135.559 C 171.859 135.552,171.683 135.270,171.266 134.932 C 170.849 134.594,170.715 134.421,170.969 134.548 C 171.223 134.675,171.558 134.573,171.713 134.321 C 171.873 134.062,171.828 133.968,171.608 134.103 C 171.111 134.410,169.664 133.400,169.105 132.355 C 168.758 131.707,168.777 131.601,169.199 131.823 C 169.489 131.975,169.342 131.776,168.871 131.382 C 168.401 130.987,167.962 130.411,167.895 130.103 C 167.828 129.794,167.334 129.113,166.797 128.589 C 166.202 128.009,166.126 127.847,166.602 128.174 C 167.314 128.664,167.337 128.652,166.861 128.044 C 166.570 127.673,166.474 127.154,166.643 126.873 C 166.890 126.462,166.830 126.462,166.321 126.874 C 165.662 127.408,164.980 126.900,165.413 126.199 C 165.537 125.999,165.432 125.708,165.180 125.553 C 164.871 125.362,164.825 125.448,165.036 125.819 C 165.284 126.254,165.244 126.270,164.839 125.895 C 164.421 125.508,164.428 125.298,164.880 124.724 C 165.375 124.094,165.365 124.074,164.781 124.531 C 164.337 124.878,164.051 124.907,163.875 124.622 C 163.734 124.393,163.435 124.319,163.212 124.457 C 162.950 124.619,162.905 124.397,163.086 123.828 C 163.251 123.309,163.215 123.042,162.998 123.176 C 162.796 123.301,162.630 123.155,162.630 122.852 C 162.630 122.548,162.765 122.383,162.929 122.484 C 163.093 122.586,163.354 122.463,163.510 122.212 C 163.680 121.936,163.624 121.859,163.369 122.016 C 163.135 122.160,162.839 122.107,162.710 121.898 C 162.581 121.689,162.173 121.632,161.804 121.770 C 161.196 121.997,161.188 121.952,161.719 121.287 C 162.060 120.860,162.100 120.676,161.816 120.847 C 161.487 121.044,161.328 120.870,161.328 120.313 C 161.328 119.857,161.152 119.594,160.938 119.727 C 160.571 119.953,160.369 119.396,160.523 118.586 C 160.560 118.389,160.341 118.434,160.036 118.687 C 159.579 119.067,159.501 118.971,159.593 118.137 C 159.660 117.523,159.415 116.880,158.967 116.496 C 158.514 116.108,158.364 115.708,158.576 115.453 C 158.817 115.163,156.852 115.098,152.019 115.234 C 148.223 115.342,142.041 115.342,138.281 115.234 C 134.521 115.127,127.527 115.127,122.738 115.234 C 117.950 115.342,113.598 115.313,113.068 115.170 C 112.517 115.021,112.199 115.063,112.325 115.267 C 112.627 115.756,111.840 115.717,110.865 115.195 C 110.239 114.860,110.129 114.874,110.366 115.257 M218.801 185.680 C 218.562 185.969,218.453 186.291,218.558 186.397 C 218.664 186.502,218.503 186.589,218.201 186.589 C 217.767 186.589,217.746 186.439,218.100 185.872 C 218.346 185.479,218.702 185.156,218.892 185.156 C 219.081 185.156,219.041 185.392,218.801 185.680 " stroke="none" fill="#131313" fill-rule="evenodd"></path><path id="path1" d="M110.071 115.176 C 109.411 115.426,128.570 115.339,130.469 115.083 C 131.006 115.011,126.787 114.945,121.094 114.937 C 115.400 114.928,110.440 115.036,110.071 115.176 M131.710 115.044 C 131.973 115.307,157.478 115.309,157.741 115.046 C 157.852 114.935,151.995 114.844,144.727 114.844 C 137.458 114.844,131.600 114.934,131.710 115.044 M180.571 115.076 C 180.915 115.420,290.582 115.480,290.369 115.137 C 290.270 114.976,265.472 114.844,235.263 114.844 C 205.055 114.844,180.443 114.948,180.571 115.076 M107.615 116.799 C 107.225 117.230,106.998 117.675,107.111 117.788 C 107.224 117.901,107.608 117.548,107.964 117.004 C 108.742 115.816,108.587 115.725,107.615 116.799 M159.726 118.164 C 160.385 119.438,160.926 120.145,160.923 119.727 C 160.921 119.512,160.561 118.896,160.121 118.359 C 159.591 117.711,159.458 117.645,159.726 118.164 M106.731 120.313 C 106.731 121.064,106.812 121.372,106.910 120.996 C 107.008 120.620,107.008 120.005,106.910 119.629 C 106.812 119.253,106.731 119.561,106.731 120.313 M163.140 123.242 C 164.043 124.785,164.063 124.807,164.063 124.327 C 164.063 124.100,163.701 123.500,163.258 122.992 L 162.454 122.070 163.140 123.242 M185.487 124.023 C 186.180 125.289,187.482 126.793,187.491 126.340 C 187.496 126.110,186.951 125.319,186.279 124.582 C 185.608 123.845,185.252 123.594,185.487 124.023 M164.462 125.240 C 164.473 125.696,165.996 127.637,166.007 127.210 C 166.012 127.029,165.664 126.434,165.234 125.888 C 164.805 125.342,164.457 125.050,164.462 125.240 M189.329 129.056 C 189.201 129.390,189.253 129.759,189.443 129.877 C 189.942 130.185,190.239 129.545,189.872 128.953 C 189.630 128.560,189.511 128.583,189.329 129.056 M287.402 129.165 C 287.778 129.316,287.755 129.554,287.304 130.197 C 286.982 130.657,286.720 131.214,286.721 131.435 C 286.723 131.655,287.064 131.320,287.480 130.688 C 288.251 129.519,288.214 128.882,287.379 128.937 C 287.043 128.959,287.050 129.023,287.402 129.165 M113.513 131.738 C 114.306 132.974,115.027 133.984,115.116 133.984 C 115.378 133.984,113.965 131.720,112.979 130.560 C 112.479 129.973,112.720 130.503,113.513 131.738 M190.563 131.521 C 191.158 132.638,191.674 132.937,192.026 132.368 C 192.215 132.061,192.138 132.016,191.791 132.230 C 191.403 132.470,191.344 132.366,191.556 131.814 C 191.711 131.410,191.713 131.203,191.560 131.356 C 191.408 131.509,191.018 131.416,190.695 131.149 C 190.183 130.727,190.166 130.776,190.563 131.521 M215.234 135.435 C 215.557 135.555,216.172 135.814,216.602 136.012 C 217.370 136.365,217.371 136.362,216.625 135.764 C 216.208 135.430,215.592 135.170,215.257 135.187 C 214.731 135.214,214.728 135.248,215.234 135.435 M281.590 137.598 C 281.563 137.651,281.510 138.189,281.474 138.792 L 281.408 139.888 282.080 138.998 C 282.746 138.116,282.716 137.500,282.008 137.500 C 281.806 137.500,281.618 137.544,281.590 137.598 M120.434 142.145 C 121.119 143.204,121.736 144.016,121.806 143.948 C 121.980 143.776,120.041 140.745,119.571 140.454 C 119.360 140.324,119.749 141.085,120.434 142.145 M197.215 141.211 C 197.426 141.641,197.885 142.344,198.235 142.773 L 198.871 143.555 198.488 142.773 C 198.277 142.344,197.818 141.641,197.468 141.211 L 196.832 140.430 197.215 141.211 M225.801 141.028 C 226.213 141.283,227.734 141.104,227.734 140.801 C 227.734 140.733,227.196 140.693,226.539 140.711 C 225.874 140.730,225.547 140.871,225.801 141.028 M176.042 142.448 C 175.667 142.822,175.721 143.377,176.120 143.262 C 176.307 143.208,176.849 143.604,177.326 144.141 L 178.193 145.117 177.309 143.750 C 176.823 142.998,176.397 142.339,176.363 142.285 C 176.330 142.231,176.185 142.305,176.042 142.448 M232.266 144.078 C 232.154 144.258,232.803 144.798,233.707 145.278 C 234.612 145.758,235.081 145.918,234.751 145.634 C 234.421 145.350,234.214 144.810,234.292 144.434 C 234.440 143.713,232.682 143.404,232.266 144.078 M209.864 147.070 C 209.868 147.930,209.948 148.235,210.042 147.749 C 210.135 147.263,210.132 146.560,210.034 146.187 C 209.936 145.813,209.860 146.211,209.864 147.070 M179.148 147.482 C 179.016 147.824,179.081 147.985,179.295 147.853 C 179.768 147.561,181.244 149.915,181.255 150.977 C 181.260 151.590,181.337 151.639,181.613 151.204 C 181.959 150.656,181.562 149.784,180.039 147.754 C 179.492 147.024,179.341 146.978,179.148 147.482 M236.751 147.021 C 237.153 147.380,239.453 148.437,239.453 148.262 C 239.453 148.037,237.288 146.875,236.868 146.875 C 236.714 146.875,236.662 146.941,236.751 147.021 M275.372 147.070 C 275.122 148.277,275.148 149.173,275.427 149.001 C 275.603 148.892,275.637 148.516,275.502 148.166 C 275.346 147.758,275.413 147.624,275.688 147.794 C 275.924 147.940,276.245 147.854,276.401 147.602 C 276.569 147.330,276.515 147.249,276.266 147.403 C 276.036 147.545,275.759 147.440,275.650 147.170 C 275.541 146.901,275.416 146.855,275.372 147.070 M209.908 152.539 C 209.909 154.688,209.975 155.517,210.054 154.381 C 210.133 153.246,210.132 151.488,210.052 150.475 C 209.972 149.462,209.907 150.391,209.908 152.539 M182.031 151.569 C 182.031 151.814,182.587 152.569,183.267 153.249 C 184.232 154.214,184.398 154.289,184.023 153.588 C 183.759 153.094,183.291 152.594,182.985 152.476 C 182.678 152.358,182.516 152.117,182.626 151.939 C 182.735 151.762,182.647 151.506,182.428 151.371 C 182.210 151.236,182.031 151.325,182.031 151.569 M127.475 152.799 C 127.721 153.193,128.188 153.510,128.512 153.504 C 128.975 153.494,128.953 153.405,128.410 153.089 C 128.029 152.868,127.802 152.551,127.904 152.385 C 128.007 152.219,127.852 152.083,127.559 152.083 C 127.142 152.083,127.124 152.237,127.475 152.799 M271.289 154.688 C 270.747 155.547,270.129 156.250,269.917 156.250 C 269.705 156.250,269.552 156.382,269.578 156.543 C 269.690 157.258,269.505 157.843,269.222 157.667 C 269.051 157.562,268.887 157.815,268.855 158.230 C 268.771 159.344,268.947 159.190,270.335 156.934 C 271.028 155.806,271.855 154.487,272.171 154.004 C 272.487 153.521,272.640 153.125,272.511 153.125 C 272.381 153.125,271.832 153.828,271.289 154.688 M184.375 155.455 C 184.375 155.677,184.649 155.859,184.984 155.859 C 185.319 155.859,185.500 156.010,185.387 156.193 C 185.273 156.377,185.658 156.948,186.243 157.463 L 187.305 158.398 186.422 157.393 C 185.937 156.840,185.644 156.283,185.772 156.155 C 185.900 156.027,185.638 155.726,185.190 155.487 C 184.648 155.197,184.375 155.186,184.375 155.455 M239.063 158.984 C 238.096 159.627,237.480 160.148,237.695 160.142 C 237.910 160.136,238.419 159.879,238.827 159.570 C 239.235 159.262,239.745 159.119,239.962 159.253 C 240.185 159.391,240.235 159.301,240.076 159.045 C 239.911 158.778,240.046 158.594,240.407 158.594 C 240.742 158.594,241.016 158.418,241.016 158.203 C 241.016 157.676,241.055 157.660,239.063 158.984 M187.509 159.118 C 187.504 159.299,187.852 159.894,188.281 160.440 C 188.711 160.987,189.059 161.278,189.054 161.088 C 189.042 160.632,187.520 158.691,187.509 159.118 M236.561 160.486 C 236.426 160.705,236.506 161.001,236.738 161.145 C 237.339 161.516,237.726 161.008,237.225 160.506 C 236.945 160.226,236.726 160.219,236.561 160.486 M234.668 161.552 C 233.208 162.344,233.297 162.674,234.766 161.914 C 235.410 161.581,235.938 161.225,235.938 161.123 C 235.938 160.871,235.896 160.886,234.668 161.552 M266.946 161.426 C 265.601 163.707,265.513 163.902,266.198 163.086 C 266.992 162.141,267.676 160.938,267.420 160.938 C 267.317 160.938,267.104 161.157,266.946 161.426 M189.278 162.215 C 189.382 162.489,189.860 162.951,190.340 163.243 C 191.171 163.750,191.167 163.727,190.264 162.747 C 189.207 161.599,188.998 161.487,189.278 162.215 M229.582 164.489 C 228.860 164.909,229.004 165.629,229.808 165.619 C 230.126 165.615,230.108 165.508,229.752 165.283 C 229.337 165.020,229.364 164.902,229.885 164.702 C 230.245 164.564,230.726 164.566,230.955 164.708 C 231.200 164.859,231.256 164.779,231.092 164.513 C 230.755 163.968,230.484 163.963,229.582 164.489 M264.263 165.618 C 263.670 166.474,263.041 167.085,262.866 166.977 C 262.691 166.869,262.574 167.135,262.607 167.570 C 262.639 168.004,262.693 168.359,262.727 168.359 C 262.786 168.359,264.735 165.536,265.351 164.558 C 266.100 163.370,265.241 164.206,264.263 165.618 M224.023 167.804 C 223.164 168.317,222.637 168.739,222.852 168.742 C 223.321 168.748,225.781 167.283,225.781 166.998 C 225.781 166.743,225.862 166.706,224.023 167.804 M261.861 169.334 C 261.738 169.655,261.509 169.838,261.352 169.742 C 261.196 169.645,261.068 169.814,261.068 170.117 C 261.068 170.421,261.213 170.579,261.391 170.469 C 261.816 170.206,262.591 168.750,262.306 168.750 C 262.184 168.750,261.984 169.013,261.861 169.334 M217.922 171.387 C 217.897 171.548,217.903 171.830,217.936 172.014 C 217.969 172.198,217.810 172.573,217.582 172.847 C 217.277 173.215,217.347 173.415,217.849 173.608 C 218.224 173.752,218.406 173.744,218.253 173.592 C 218.100 173.439,218.182 173.065,218.435 172.760 C 218.791 172.332,218.780 172.135,218.388 171.893 C 217.976 171.638,217.981 171.539,218.413 171.367 C 218.791 171.217,218.804 171.146,218.457 171.125 C 218.188 171.108,217.948 171.226,217.922 171.387 M259.397 173.012 C 258.720 174.067,257.900 175.033,257.574 175.158 C 257.248 175.283,257.091 175.562,257.225 175.778 C 257.359 175.995,257.339 176.380,257.182 176.634 C 256.985 176.954,256.794 176.863,256.565 176.341 C 256.293 175.721,256.267 175.757,256.421 176.542 C 256.524 177.068,256.418 177.727,256.186 178.007 C 255.954 178.287,255.872 178.516,256.005 178.516 C 256.137 178.516,257.178 177.065,258.318 175.293 C 260.980 171.155,261.017 171.094,260.806 171.094 C 260.708 171.094,260.074 171.957,259.397 173.012 M140.965 172.852 C 141.176 173.281,141.635 173.984,141.985 174.414 L 142.621 175.195 142.238 174.414 C 142.027 173.984,141.568 173.281,141.218 172.852 L 140.582 172.070 140.965 172.852 M197.461 174.219 C 197.850 174.648,198.235 175.000,198.316 175.000 C 198.398 175.000,198.277 174.648,198.047 174.219 C 197.817 173.789,197.432 173.438,197.191 173.438 C 196.951 173.438,197.072 173.789,197.461 174.219 M144.597 178.353 C 145.287 179.445,146.076 180.339,146.350 180.339 C 146.640 180.339,146.485 179.989,145.983 179.504 C 145.507 179.045,144.718 178.152,144.230 177.518 C 143.742 176.885,143.907 177.261,144.597 178.353 M254.101 180.516 C 254.233 180.864,254.105 181.392,253.816 181.688 C 253.527 181.984,252.887 182.887,252.393 183.694 C 251.900 184.501,251.373 185.085,251.222 184.992 C 251.072 184.899,250.949 185.162,250.949 185.576 C 250.949 186.637,250.957 186.629,252.974 183.568 C 254.380 181.433,254.686 180.703,254.326 180.345 C 253.966 179.988,253.915 180.027,254.101 180.516 M147.327 182.422 C 147.804 183.066,148.259 183.594,148.338 183.594 C 148.417 183.594,148.170 183.066,147.789 182.422 C 147.409 181.777,146.954 181.250,146.779 181.250 C 146.604 181.250,146.851 181.777,147.327 182.422 M203.125 182.273 C 203.125 182.487,203.383 183.004,203.699 183.421 C 204.014 183.838,204.272 184.004,204.272 183.789 C 204.272 183.574,204.014 183.057,203.699 182.640 C 203.383 182.223,203.125 182.058,203.125 182.273 M217.944 184.813 C 217.684 185.298,217.664 185.540,217.896 185.396 C 218.114 185.262,218.367 185.284,218.457 185.447 C 218.548 185.609,218.557 185.493,218.477 185.187 C 218.398 184.882,218.559 184.490,218.834 184.315 C 219.205 184.079,219.212 183.995,218.861 183.990 C 218.600 183.987,218.187 184.357,217.944 184.813 M250.075 186.504 C 250.408 186.873,248.637 189.809,247.570 190.658 C 247.007 191.106,246.950 191.276,247.364 191.276 C 248.195 191.276,250.899 186.832,250.284 186.478 C 250.020 186.327,249.927 186.338,250.075 186.504 M152.747 190.340 C 152.733 190.683,154.710 193.750,154.945 193.750 C 155.162 193.750,154.084 191.754,153.363 190.820 C 153.031 190.391,152.754 190.175,152.747 190.340 M212.305 193.498 C 212.090 193.744,211.246 195.000,210.428 196.289 C 209.611 197.578,209.327 198.193,209.797 197.656 C 210.266 197.119,210.816 196.728,211.018 196.787 C 211.221 196.846,211.275 196.715,211.139 196.495 C 210.818 195.975,211.885 194.447,212.305 194.827 C 212.481 194.986,212.505 194.908,212.359 194.653 C 212.213 194.398,212.383 194.026,212.737 193.828 C 213.092 193.630,213.227 193.374,213.038 193.259 C 212.850 193.145,212.520 193.252,212.305 193.498 M200.346 193.770 C 200.322 193.866,200.242 194.456,200.170 195.080 L 200.038 196.214 200.650 195.340 C 201.101 194.696,201.147 194.350,200.826 194.030 C 200.587 193.790,200.371 193.673,200.346 193.770 M155.469 194.422 C 155.469 194.505,155.908 195.219,156.445 196.010 C 156.982 196.800,157.422 197.241,157.422 196.989 C 157.422 196.737,157.243 196.420,157.025 196.285 C 156.807 196.150,156.729 195.876,156.853 195.676 C 156.976 195.476,156.872 195.313,156.622 195.313 C 156.371 195.313,156.256 195.078,156.366 194.792 C 156.476 194.505,156.319 194.271,156.017 194.271 C 155.716 194.271,155.469 194.339,155.469 194.422 M158.216 198.698 C 158.222 198.877,158.491 199.372,158.813 199.797 C 159.381 200.549,159.394 200.544,159.253 199.622 C 159.122 198.762,158.186 197.928,158.216 198.698 M241.386 200.328 C 240.845 200.766,240.659 201.147,240.909 201.302 C 241.136 201.441,241.608 201.118,241.958 200.583 C 242.718 199.423,242.580 199.361,241.386 200.328 M161.203 203.131 C 163.219 206.853,165.625 209.694,165.625 208.352 C 165.625 208.245,165.492 208.239,165.330 208.339 C 165.168 208.439,164.509 207.640,163.866 206.562 C 162.793 204.768,160.462 201.764,161.203 203.131 M203.906 206.055 C 203.241 207.021,202.785 207.813,202.892 207.813 C 203.000 207.813,203.632 207.021,204.297 206.055 C 204.962 205.088,205.418 204.297,205.311 204.297 C 205.204 204.297,204.571 205.088,203.906 206.055 M234.537 210.254 C 234.568 210.737,234.437 211.243,234.247 211.377 C 234.050 211.516,234.048 211.712,234.243 211.833 C 234.432 211.949,234.979 211.444,235.460 210.710 L 236.335 209.375 235.408 209.375 C 234.691 209.375,234.494 209.574,234.537 210.254 M169.416 215.548 C 172.212 219.899,172.708 220.459,172.130 218.614 C 171.857 217.741,171.589 217.404,171.402 217.698 C 171.177 218.052,171.104 218.047,171.100 217.676 C 171.091 216.932,170.968 216.701,170.062 215.724 C 169.603 215.228,169.015 214.312,168.757 213.689 C 168.499 213.066,168.050 212.465,167.760 212.354 C 167.470 212.242,168.215 213.680,169.416 215.548 M198.817 213.694 C 198.580 214.135,198.445 214.670,198.515 214.882 C 198.586 215.095,198.846 214.733,199.093 214.079 C 199.606 212.720,199.453 212.505,198.817 213.694 M231.277 216.369 C 230.832 216.993,230.469 217.642,230.469 217.812 C 230.469 217.982,230.908 217.525,231.445 216.797 C 231.982 216.069,232.422 215.419,232.422 215.354 C 232.422 214.985,231.989 215.368,231.277 216.369 M196.184 217.480 C 195.063 219.100,194.765 219.836,195.625 218.864 C 196.044 218.390,196.525 218.126,196.693 218.278 C 196.862 218.430,196.897 218.268,196.772 217.919 C 196.648 217.569,196.743 217.085,196.984 216.844 C 197.225 216.603,197.311 216.406,197.175 216.406 C 197.039 216.406,196.593 216.890,196.184 217.480 M183.688 220.517 C 182.601 222.133,181.633 223.231,181.537 222.958 C 181.441 222.685,181.360 222.954,181.355 223.556 C 181.348 224.535,181.522 224.390,182.991 222.189 C 185.632 218.233,186.038 217.578,185.846 217.578 C 185.747 217.578,184.776 218.900,183.688 220.517 M229.360 219.344 C 228.845 219.999,228.525 220.162,228.405 219.832 C 228.305 219.559,228.246 219.819,228.272 220.410 C 228.331 221.731,228.217 221.779,229.446 219.922 C 230.601 218.176,230.550 217.831,229.360 219.344 M172.997 220.898 C 173.208 221.328,173.667 222.031,174.016 222.461 L 174.652 223.242 174.269 222.461 C 174.058 222.031,173.599 221.328,173.249 220.898 L 172.613 220.117 172.997 220.898 M225.781 225.023 C 225.781 225.251,225.562 225.310,225.293 225.156 C 225.024 225.001,224.930 225.014,225.084 225.184 C 225.237 225.354,225.184 225.866,224.964 226.321 C 224.607 227.062,224.649 227.052,225.369 226.226 C 226.128 225.355,226.408 224.609,225.977 224.609 C 225.869 224.609,225.781 224.796,225.781 225.023 M186.142 232.522 C 185.171 234.116,184.938 234.779,185.659 233.893 C 185.962 233.520,186.325 233.300,186.464 233.405 C 186.604 233.509,186.630 233.476,186.522 233.332 C 186.414 233.188,186.594 232.661,186.922 232.160 C 187.250 231.660,187.382 231.251,187.216 231.252 C 187.050 231.254,186.567 231.825,186.142 232.522 M184.766 238.672 C 185.225 239.316,185.686 239.844,185.791 239.844 C 185.896 239.844,185.670 239.316,185.289 238.672 C 184.909 238.027,184.447 237.500,184.264 237.500 C 184.081 237.500,184.307 238.027,184.766 238.672 M187.512 242.437 C 187.530 242.914,188.630 244.313,188.830 244.112 C 188.921 244.020,188.659 243.530,188.248 243.023 C 187.836 242.516,187.506 242.252,187.512 242.437 M212.842 244.206 C 212.736 244.909,212.639 245.164,211.972 246.484 L 211.281 247.852 212.077 246.875 C 212.838 245.942,213.008 245.527,212.793 245.134 C 212.739 245.036,213.026 244.714,213.431 244.418 C 214.056 243.960,214.071 243.880,213.528 243.880 C 213.178 243.880,212.869 244.027,212.842 244.206 M191.005 247.754 C 191.676 248.774,192.340 249.609,192.480 249.609 C 192.620 249.609,192.523 249.398,192.266 249.141 C 191.539 248.414,191.713 247.885,192.480 248.487 C 193.097 248.971,193.113 248.958,192.638 248.352 C 192.349 247.983,191.977 247.720,191.811 247.766 C 191.645 247.813,191.122 247.412,190.647 246.875 C 190.173 246.338,190.334 246.733,191.005 247.754 M195.187 253.839 C 195.578 254.553,196.152 255.344,196.462 255.596 C 196.918 255.968,196.957 255.944,196.667 255.469 C 196.471 255.146,196.305 254.665,196.299 254.399 C 196.294 254.133,196.165 253.957,196.013 254.008 C 195.861 254.060,195.453 253.750,195.106 253.320 C 194.639 252.741,194.660 252.875,195.187 253.839 M206.327 254.297 C 206.433 255.692,206.482 255.715,207.056 254.640 C 207.414 253.973,207.397 253.865,206.973 254.083 C 206.683 254.233,206.787 254.078,207.204 253.740 C 207.947 253.137,207.945 253.125,207.100 253.125 C 206.382 253.125,206.253 253.322,206.327 254.297 M197.527 257.428 C 198.268 258.682,200.268 261.150,199.732 260.149 C 199.178 259.114,197.169 256.250,196.996 256.250 C 196.905 256.250,197.144 256.780,197.527 257.428 " stroke="none" fill="#17181c" fill-rule="evenodd"></path><path id="path2" d="M288.969 113.896 C 288.880 113.985,263.701 114.061,233.016 114.065 C 202.330 114.069,177.354 114.202,177.512 114.361 C 177.670 114.519,177.938 114.648,178.108 114.648 C 178.445 114.648,178.721 115.044,188.879 130.078 C 200.864 147.817,205.581 154.781,208.008 158.314 L 210.352 161.727 210.622 160.258 C 210.771 159.450,210.903 154.359,210.915 148.944 C 210.940 138.091,211.045 137.518,213.197 136.497 C 214.476 135.890,214.659 135.890,215.975 136.506 C 218.490 137.683,229.665 143.785,230.181 144.262 C 230.457 144.518,230.905 144.773,231.177 144.829 C 232.431 145.090,241.914 150.611,242.594 151.476 C 243.588 152.740,243.566 154.319,242.536 155.629 C 241.740 156.641,234.146 161.376,233.442 161.299 C 233.251 161.278,232.988 161.418,232.856 161.610 C 232.155 162.634,230.707 163.251,230.105 162.782 C 229.575 162.369,229.559 162.391,229.990 162.943 C 230.406 163.474,230.377 163.624,229.818 163.838 C 228.634 164.293,217.018 171.195,216.271 171.889 C 215.575 172.535,215.603 172.599,217.052 173.679 C 217.878 174.296,218.643 174.898,218.750 175.018 C 219.355 175.695,221.926 177.423,222.086 177.262 C 222.191 177.158,220.884 176.035,219.183 174.767 L 216.089 172.461 217.712 171.450 C 218.605 170.894,220.074 170.015,220.976 169.497 C 221.877 168.979,224.850 167.236,227.582 165.625 C 230.313 164.014,233.003 162.428,233.559 162.101 C 242.938 156.587,243.750 155.906,243.750 153.550 C 243.750 151.490,242.990 150.673,238.957 148.398 C 236.974 147.279,234.736 146.014,233.984 145.586 C 231.925 144.413,224.574 140.433,219.687 137.844 C 214.146 134.909,211.284 135.112,210.759 138.477 C 210.397 140.798,210.187 146.030,210.172 153.084 L 210.156 160.269 208.864 158.552 C 207.599 156.871,204.033 151.642,191.579 133.203 C 188.169 128.154,184.011 122.002,182.341 119.531 L 179.303 115.039 234.843 114.940 C 265.389 114.886,290.481 114.986,290.601 115.164 C 290.722 115.341,291.118 115.596,291.481 115.730 C 292.611 116.146,293.484 117.915,293.456 119.731 C 293.427 121.707,292.300 123.576,278.158 145.117 C 275.620 148.984,272.005 154.521,270.127 157.422 C 268.248 160.322,265.263 164.893,263.493 167.578 C 259.962 172.936,258.175 175.686,247.503 192.188 C 243.543 198.311,238.820 205.605,237.008 208.398 C 235.196 211.191,232.088 216.025,230.100 219.141 C 228.112 222.256,225.393 226.475,224.057 228.516 C 220.568 233.847,212.006 247.110,206.691 255.414 C 201.388 263.701,201.651 263.522,199.431 260.352 C 192.698 250.740,183.585 236.810,183.714 236.328 C 183.800 236.006,192.596 222.697,203.260 206.752 C 213.924 190.807,222.401 177.857,222.097 177.973 C 221.793 178.090,221.442 178.454,221.316 178.782 C 221.177 179.143,220.836 179.282,220.449 179.133 C 219.960 178.945,219.909 179.007,220.232 179.395 C 220.648 179.897,217.107 185.642,215.914 186.399 C 215.648 186.568,215.565 186.709,215.731 186.713 C 216.115 186.720,210.662 194.951,209.839 195.605 C 209.502 195.874,209.349 196.094,209.500 196.094 C 209.870 196.094,198.906 212.564,198.124 213.184 C 197.784 213.452,197.630 213.672,197.780 213.672 C 197.930 213.672,197.238 214.898,196.241 216.397 C 195.244 217.897,194.249 219.012,194.029 218.876 C 193.804 218.737,193.748 218.821,193.899 219.066 C 194.048 219.306,191.662 223.237,188.588 227.818 C 185.519 232.391,182.958 236.238,182.897 236.367 C 182.792 236.590,191.080 249.126,195.590 255.566 C 196.756 257.231,197.610 258.594,197.488 258.594 C 197.366 258.594,197.573 258.913,197.949 259.304 C 198.325 259.694,199.200 260.837,199.894 261.843 C 201.590 264.301,201.379 264.447,205.690 257.813 C 207.784 254.590,209.645 251.953,209.827 251.953 C 210.008 251.953,210.112 251.802,210.059 251.618 C 209.928 251.168,228.547 222.266,228.967 222.266 C 229.148 222.266,229.253 222.127,229.199 221.957 C 229.057 221.507,237.877 207.813,238.308 207.813 C 238.508 207.813,238.628 207.672,238.574 207.501 C 238.455 207.123,248.330 191.514,249.306 190.538 C 249.688 190.156,249.956 189.756,249.902 189.649 C 249.849 189.542,251.502 186.862,253.576 183.692 C 262.917 169.418,267.089 162.995,267.769 161.838 C 268.173 161.151,268.617 160.660,268.757 160.746 C 268.896 160.833,269.011 160.691,269.012 160.432 C 269.013 160.173,271.554 156.094,274.659 151.367 C 295.116 120.229,295.086 120.284,293.478 117.205 C 292.848 115.997,289.398 113.466,288.969 113.896 M109.903 114.489 C 108.292 114.956,106.357 117.195,106.022 118.980 C 105.646 120.987,105.810 121.273,117.210 138.466 C 122.770 146.851,127.280 153.835,127.233 153.987 C 127.187 154.139,127.431 154.491,127.776 154.768 C 129.044 155.789,137.966 169.483,137.673 169.958 C 137.492 170.250,137.543 170.332,137.803 170.171 C 138.036 170.027,138.338 170.088,138.473 170.306 C 138.608 170.524,138.532 170.703,138.304 170.703 C 138.077 170.703,137.891 170.873,137.891 171.081 C 137.891 171.290,138.121 171.371,138.403 171.263 C 138.965 171.048,172.016 220.041,171.594 220.463 C 171.462 220.595,171.535 220.703,171.757 220.703 C 171.978 220.703,173.439 222.640,175.005 225.007 C 176.570 227.374,177.934 229.228,178.036 229.126 C 178.138 229.024,168.385 214.211,156.363 196.209 C 131.014 158.251,114.832 133.977,110.029 126.707 C 106.329 121.107,105.888 119.559,107.307 117.156 C 108.699 114.799,108.181 114.844,134.275 114.844 L 158.079 114.844 160.437 118.457 C 162.619 121.802,168.395 130.359,178.564 145.313 C 180.829 148.643,185.294 155.234,188.488 159.961 C 191.681 164.688,196.929 172.422,200.150 177.148 C 203.371 181.875,206.012 186.094,206.018 186.523 C 206.027 187.202,202.429 193.004,197.661 200.000 C 195.783 202.754,183.329 221.830,180.598 226.134 C 179.453 227.939,178.520 229.609,178.526 229.845 C 178.532 230.081,179.188 229.219,179.983 227.930 C 183.092 222.895,190.553 211.777,190.714 211.938 C 190.808 212.032,190.887 211.890,190.889 211.621 C 190.894 211.078,203.729 191.438,204.483 190.820 C 204.746 190.605,204.983 190.296,205.011 190.133 C 205.039 189.969,205.333 189.311,205.665 188.670 C 206.442 187.168,207.155 185.293,206.823 185.625 C 206.682 185.766,204.007 182.071,200.880 177.414 C 197.752 172.756,194.871 168.529,194.477 168.020 C 194.083 167.512,193.874 166.897,194.013 166.653 C 194.152 166.410,194.135 166.328,193.976 166.471 C 193.673 166.743,185.907 155.536,185.971 154.918 C 185.991 154.722,185.724 154.404,185.378 154.210 C 185.032 154.017,184.851 153.693,184.976 153.492 C 185.100 153.290,185.032 153.125,184.823 153.125 C 184.307 153.125,178.093 143.912,178.401 143.604 C 178.536 143.470,178.464 143.359,178.242 143.359 C 178.020 143.359,177.373 142.656,176.804 141.797 C 176.235 140.938,175.894 140.234,176.046 140.234 C 176.197 140.234,176.043 140.015,175.704 139.746 C 175.037 139.218,172.003 134.851,163.492 122.168 L 158.052 114.063 134.593 114.098 C 121.690 114.117,110.579 114.293,109.903 114.489 M141.628 176.758 C 142.969 178.516,143.231 178.518,142.093 176.763 C 141.608 176.013,141.070 175.398,140.898 175.395 C 140.726 175.393,141.055 176.006,141.628 176.758 " stroke="none" fill="#040404" fill-rule="evenodd"></path><path id="path3" d="M212.080 137.402 L 211.133 138.477 212.305 137.500 C 212.949 136.963,213.550 136.479,213.639 136.426 C 213.729 136.372,213.628 136.328,213.414 136.328 C 213.201 136.328,212.601 136.812,212.080 137.402 M211.100 146.094 C 211.100 150.068,211.158 151.694,211.229 149.707 C 211.299 147.720,211.299 144.468,211.229 142.480 C 211.158 140.493,211.100 142.119,211.100 146.094 M230.859 144.706 C 230.859 144.814,231.387 145.175,232.031 145.508 C 232.676 145.841,233.203 146.026,233.203 145.919 C 233.203 145.811,232.676 145.450,232.031 145.117 C 231.387 144.784,230.859 144.599,230.859 144.706 M123.177 148.242 C 123.177 148.564,123.334 148.828,123.526 148.828 C 123.717 148.828,123.749 149.031,123.596 149.279 C 123.423 149.559,123.488 149.624,123.769 149.451 C 124.092 149.251,124.105 148.955,123.815 148.414 C 123.328 147.503,123.177 147.463,123.177 148.242 M136.990 168.780 C 137.378 169.441,137.945 170.188,138.250 170.440 C 138.555 170.692,138.312 170.151,137.710 169.238 C 136.445 167.321,135.947 167.004,136.990 168.780 M215.571 171.862 C 215.063 172.285,214.788 172.636,214.958 172.643 C 215.128 172.650,215.644 172.305,216.106 171.875 C 217.187 170.868,216.776 170.858,215.571 171.862 M218.750 182.031 C 218.291 182.676,218.003 183.203,218.111 183.203 C 218.218 183.203,218.682 182.676,219.141 182.031 C 219.600 181.387,219.887 180.859,219.780 180.859 C 219.672 180.859,219.209 181.387,218.750 182.031 M182.891 235.625 C 182.322 236.194,182.283 236.978,182.808 237.302 C 183.030 237.439,183.095 237.281,182.960 236.929 C 182.831 236.593,182.942 236.057,183.207 235.737 C 183.784 235.042,183.555 234.961,182.891 235.625 M191.232 250.357 C 191.106 250.561,191.182 250.838,191.400 250.973 C 191.618 251.108,191.797 251.086,191.797 250.925 C 191.797 250.764,192.070 250.973,192.404 251.390 C 192.991 252.122,192.997 252.119,192.598 251.291 C 192.090 250.242,191.537 249.863,191.232 250.357 M200.101 262.727 C 200.476 263.174,200.703 263.620,200.605 263.718 C 200.508 263.815,200.841 263.929,201.347 263.971 C 201.887 264.016,202.366 263.786,202.509 263.414 C 202.714 262.880,202.657 262.859,202.146 263.283 C 201.639 263.704,201.367 263.634,200.480 262.850 C 199.686 262.149,199.591 262.118,200.101 262.727 " stroke="none" fill="#262626" fill-rule="evenodd"></path><path id="path4" d="" stroke="none" fill="#141c14" fill-rule="evenodd"></path></g></svg>